# xmcd
#
# Track frame offsets:
#	150
#	16047
#	38203
#	54797
#	70242
#	86761
#	94509
#	112679
#	135057
#	155261
#
# Disc length: 2317 seconds
#
# Revision: 0
# Processed by: cddbd v1.5.2PL0 Copyright (c) Steve Scherf et al.
# Submitted via: EasyCDDAExtractor 12.0.1.1
#
DISCID=62090b0a
DTITLE=John David Souther - Black Rose
DYEAR=1976
DGENRE=Classic Rock
TTITLE0=Banging My Head Against the Moon
TTITLE1=If You Have Crying Eyes
TTITLE2=Your Turn Now
TTITLE3=Faithless Love
TTITLE4=Baby Come Home
TTITLE5=Simple Man Simple Dream
TTITLE6=Silver Blue
TTITLE7=Midnight Prowl
TTITLE8=Doors Swing Open
TTITLE9=Black Rose
EXTD=
EXTT0=
EXTT1=
EXTT2=
EXTT3=
EXTT4=
EXTT5=
EXTT6=
EXTT7=
EXTT8=
EXTT9=
PLAYORDER=
